{"title":"Middle Men 2009 BDRip XVID AC3 HQ Hive-CM8","uid":6155126,"size":1823484177,"categoryP":"video","categoryS":"movies","magnet":"?xt=urn:btih:f9b6628b0a940dd871ae9cb03ec8c83afa15b42a&amp;dn=Middle+Men+2009+BDRip+XVID+AC3+HQ+Hive-CM8&amp;tr=udp%3A%2F%2Ftracker.openbittorrent.com%3A80&amp;tr=udp%3A%2F%2Fopen.demonii.com%3A1337&amp;tr=udp%3A%2F%2Ftracker.coppersurfer.tk%3A6969&amp;tr=udp%3A%2F%2Fexodus.desync.com%3A6969","seeders":1,"leechers":0,"uploader":"TheCloon","files":-1,"time":1297012094,"description":"Middle Men 2009 BDRip XVID AC3 HQ Hive-CM8\n\n\nCM8 Doing It Right The First Time :D\n\nWhy download a touched up rip of a rip BRrip\nGet the real deal BDRip\nEnjoy\n\nSource US Bluray\n\nVideo: 720x304 @bitrate 1700 2pass\nAudio: DTS to AC3 5.1 @448\nSample: yes included\nSubs: yes english in srt /subs[/b]\n\n &lt;a href=&quot;\nhttp://www.imdb.com/title/tt1251757/&quot; rel=&quot;nofollow&quot; target=&quot;_NEW&quot;&gt;\nhttp://www.imdb.com/title/tt1251757/&lt;/a&gt;\n\n\nGeneral\nComplete name                    : Middle.Men.2009.BDRip.XVID.AC3.HQ.Hive-CM8.avi\nFormat                           : AVI\nFormat/Info                      : Audio Video Interleave\nFile size                        : 1.69 GiB\nDuration                         : 1h 52mn\nOverall bit rate                 : 2 159 Kbps\nWriting application              : Nandub v1.0rc2\nWriting library                  : Nandub build 1853/release\n\nVideo\nID                               : 0\nFormat                           : MPEG-4 Visual\nFormat profile                   : Advanced Simple@L5\nFormat settings, BVOP            : Yes\nFormat settings, QPel            : Yes\nFormat settings, GMC             : No warppoints\nFormat settings, Matrix          : Default (H.263)\nMuxing mode                      : Packed bitstream\nCodec ID                         : XVID\nCodec ID/Hint                    : XviD\nDuration                         : 1h 52mn\nBit rate                         : 1 701 Kbps\nWidth                            : 720 pixels\nHeight                           : 304 pixels\nDisplay aspect ratio             : 2.40:1\nFrame rate                       : 23.976 fps\nColor space                      : YUV\nChroma subsampling               : 4:2:0\nBit depth                        : 8 bits\nScan type                        : Progressive\nBits/(Pixel*Frame)               : 0.324\nStream size                      : 1.33 GiB (79%)\nWriting library                  : XviD 1.2.1 (UTC 2008-12-04)\n\nAudio\nID                               : 1\nFormat                           : AC-3\nFormat/Info                      : Audio Coding 3\nMode extension                   : CM (complete main)\nCodec ID                         : 2000\nDuration                         : 1h 52mn\nBit rate mode                    : Constant\nBit rate                         : 448 Kbps\nChannel(s)                       : 6 channels\nChannel positions                : Front: L C R, Side: L R, LFE\nSampling rate                    : 48.0 KHz\nBit depth                        : 16 bits\nStream size                      : 359 MiB (21%)\nAlignment                        : Split accross interleaves\nInterleave, duration             : 42 ms (1.00 video frame)\nInterleave, preload duration     : 500 ms\n\n\n\nLuke Wilson - Jack Harris\nGiovanni Ribisi - Wayne Beering\nGabriel Macht - Buck Dolby\nJames Caan - Jerry Haggerty\nJacinda Barrett - Diana Harris\nKevin Pollak - Curt Allmans\nLaura Ramsey - Audrey Dawns\nRade Sherbedgia - Nikita Sokoloff\nTerry Crews - James\nKelsey Grammer - Frank Griffin \n\n\nChronicles Jack Harris, one of the pioneers of internet commerce, \nas he wrestles with his morals and struggles not to drown in a sea of conmen, \nmobsters, drug addicts, and pornstars.  \n","torrent":{"xt":"urn:btih:f9b6628b0a940dd871ae9cb03ec8c83afa15b42a","amp;dn":"Middle+Men+2009+BDRip+XVID+AC3+HQ+Hive-CM8","amp;tr":["udp%3A%2F%2Ftracker.openbittorrent.com%3A80","udp%3A%2F%2Fopen.demonii.com%3A1337","udp%3A%2F%2Ftracker.coppersurfer.tk%3A6969","udp%3A%2F%2Fexodus.desync.com%3A6969"],"infoHash":"f9b6628b0a940dd871ae9cb03ec8c83afa15b42a","infoHashBuffer":{"type":"Buffer","data":[249,182,98,139,10,148,13,216,113,174,156,176,62,200,200,58,250,21,180,42]},"announce":[],"urlList":[]}}